<svg xmlns="http://www.w3.org/2000/svg" viewBox="0 0 800 600" role="img" aria-label="Placeholder drawing — detail view">
  <defs>
    <pattern id="grid-minor" width="25" height="25" patternUnits="userSpaceOnUse">
      <path d="M25 0H0V25" fill="none" stroke="#cbd5e1" stroke-width="0.4"/>
    </pattern>
    <pattern id="grid-major" width="100" height="100" patternUnits="userSpaceOnUse">
      <rect width="100" height="100" fill="url(#grid-minor)"/>
      <path d="M100 0H0V100" fill="none" stroke="#94a3b8" stroke-width="0.7"/>
    </pattern>
    <linearGradient id="bgd" x1="0" y1="0" x2="0" y2="1">
      <stop offset="0%" stop-color="#f8fafc"/>
      <stop offset="100%" stop-color="#eef2f7"/>
    </linearGradient>
  </defs>
  <rect width="800" height="600" fill="url(#bgd)"/>
  <rect width="800" height="600" fill="url(#grid-major)"/>
  <rect x="20" y="20" width="760" height="510" fill="none" stroke="#1e3a5f" stroke-width="2"/>

  <g font-family="ui-monospace, Menlo, Consolas, monospace" fill="#1e3a5f">
    <rect x="500" y="30" width="270" height="34" fill="#1e3a5f"/>
    <text x="635" y="52" font-size="13" fill="#fff" text-anchor="middle" letter-spacing="2">DETAIL</text>
    <text x="500" y="86" font-size="10" fill="#475569">SCALE TBD  ·  REV. 00</text>
  </g>

  <g fill="none" stroke="#1e3a5f" stroke-width="1.4">
    <rect x="80" y="160" width="280" height="220"/>
    <line x1="80" y1="220" x2="360" y2="220"/>
    <line x1="80" y1="280" x2="360" y2="280"/>
    <line x1="80" y1="340" x2="360" y2="340"/>
    <line x1="160" y1="160" x2="160" y2="380"/>
    <line x1="240" y1="160" x2="240" y2="380"/>
    <line x1="320" y1="160" x2="320" y2="380"/>
  </g>
  <circle cx="220" cy="250" r="80" fill="none" stroke="#d97706" stroke-width="1.4" stroke-dasharray="5 4"/>
  <line x1="220" y1="250" x2="540" y2="150" stroke="#d97706" stroke-width="1.2"/>
  <line x1="290" y1="290" x2="540" y2="200" stroke="#d97706" stroke-width="1.2"/>
  <g fill="none" stroke="#1e3a5f" stroke-width="2">
    <rect x="540" y="150" width="200" height="180"/>
  </g>
  <g fill="none" stroke="#1e3a5f" stroke-width="1.2">
    <line x1="540" y1="190" x2="740" y2="190"/>
    <line x1="540" y1="230" x2="740" y2="230"/>
    <line x1="540" y1="270" x2="740" y2="270"/>
    <line x1="540" y1="310" x2="740" y2="310"/>
    <line x1="600" y1="150" x2="600" y2="330"/>
    <line x1="680" y1="150" x2="680" y2="330"/>
  </g>
  <g transform="translate(170,400) rotate(-12)" opacity="0.30">
    <rect x="-110" y="-22" width="220" height="44" fill="none" stroke="#d97706" stroke-width="2"/>
    <text x="0" y="6" font-family="ui-monospace,monospace" font-size="22" font-weight="700" fill="#d97706" text-anchor="middle" letter-spacing="3">PLACEHOLDER</text>
  </g>
  <rect x="20" y="530" width="760" height="50" fill="#1e3a5f"/>
  <text x="40" y="562" font-family="ui-monospace, Menlo, monospace" font-size="14" fill="#fff" letter-spacing="2">DETAIL — REPLACE WITH REAL EXPORT</text>
  <text x="760" y="562" font-family="ui-monospace, Menlo, monospace" font-size="12" fill="#d97706" text-anchor="end">AFLOAREI R.-B.</text>
</svg>